<mxfile host="app.diagrams.net" modified="2023-12-06T13:43:41.671Z" agent="Mozilla/5.0 (Macintosh; Intel Mac OS X 10_15_7) AppleWebKit/537.36 (KHTML, like Gecko) Chrome/119.0.0.0 Safari/537.36" etag="lT8_SdJWkXwpX90YscDl" version="22.1.5" type="device">
  <diagram name="Page-1" id="7OPM4D2e0zkG4XCYflvy">
    <mxGraphModel dx="363" dy="637" grid="1" gridSize="10" guides="1" tooltips="1" connect="1" arrows="1" fold="1" page="1" pageScale="1" pageWidth="827" pageHeight="1169" math="0" shadow="0">
      <root>
        <mxCell id="0" />
        <mxCell id="1" parent="0" />
        <mxCell id="AWFsbSFZq8-mkHC_pEQh-3" style="edgeStyle=orthogonalEdgeStyle;rounded=0;orthogonalLoop=1;jettySize=auto;html=1;exitX=1;exitY=0.5;exitDx=0;exitDy=0;entryX=0;entryY=0.5;entryDx=0;entryDy=0;" edge="1" parent="1" source="AWFsbSFZq8-mkHC_pEQh-1" target="AWFsbSFZq8-mkHC_pEQh-2">
          <mxGeometry relative="1" as="geometry" />
        </mxCell>
        <mxCell id="AWFsbSFZq8-mkHC_pEQh-1" value="A" style="rounded=0;whiteSpace=wrap;html=1;" vertex="1" parent="1">
          <mxGeometry x="40" y="40" width="40" height="40" as="geometry" />
        </mxCell>
        <mxCell id="AWFsbSFZq8-mkHC_pEQh-2" value="B" style="rounded=0;whiteSpace=wrap;html=1;" vertex="1" parent="1">
          <mxGeometry x="120" y="40" width="40" height="40" as="geometry" />
        </mxCell>
        <mxCell id="AWFsbSFZq8-mkHC_pEQh-4" value="*" style="text;html=1;strokeColor=none;fillColor=none;align=center;verticalAlign=middle;whiteSpace=wrap;rounded=0;fontStyle=1;fontSize=18;" vertex="1" parent="1">
          <mxGeometry x="50" y="30" width="20" height="10" as="geometry" />
        </mxCell>
        <mxCell id="AWFsbSFZq8-mkHC_pEQh-5" value="" style="endArrow=baseDash;html=1;rounded=0;exitX=1;exitY=0.25;exitDx=0;exitDy=0;dashed=1;endFill=0;fillColor=#f5f5f5;strokeColor=#666666;" edge="1" parent="1" source="AWFsbSFZq8-mkHC_pEQh-4">
          <mxGeometry width="50" height="50" relative="1" as="geometry">
            <mxPoint x="170" y="120" as="sourcePoint" />
            <mxPoint x="100" y="50" as="targetPoint" />
            <Array as="points">
              <mxPoint x="100" y="33" />
            </Array>
          </mxGeometry>
        </mxCell>
        <mxCell id="AWFsbSFZq8-mkHC_pEQh-6" style="edgeStyle=orthogonalEdgeStyle;rounded=0;orthogonalLoop=1;jettySize=auto;html=1;exitX=1;exitY=0.5;exitDx=0;exitDy=0;entryX=0;entryY=0.5;entryDx=0;entryDy=0;" edge="1" parent="1" source="AWFsbSFZq8-mkHC_pEQh-7" target="AWFsbSFZq8-mkHC_pEQh-8">
          <mxGeometry relative="1" as="geometry" />
        </mxCell>
        <mxCell id="AWFsbSFZq8-mkHC_pEQh-7" value="A" style="rounded=0;whiteSpace=wrap;html=1;" vertex="1" parent="1">
          <mxGeometry x="200" y="40" width="40" height="40" as="geometry" />
        </mxCell>
        <mxCell id="AWFsbSFZq8-mkHC_pEQh-8" value="B" style="rounded=0;whiteSpace=wrap;html=1;" vertex="1" parent="1">
          <mxGeometry x="280" y="40" width="40" height="40" as="geometry" />
        </mxCell>
        <mxCell id="AWFsbSFZq8-mkHC_pEQh-9" value="*" style="text;html=1;strokeColor=none;fillColor=none;align=center;verticalAlign=middle;whiteSpace=wrap;rounded=0;fontStyle=1;fontSize=18;" vertex="1" parent="1">
          <mxGeometry x="290" y="30" width="20" height="10" as="geometry" />
        </mxCell>
        <mxCell id="AWFsbSFZq8-mkHC_pEQh-10" value="" style="endArrow=baseDash;html=1;rounded=0;exitX=0;exitY=0.25;exitDx=0;exitDy=0;dashed=1;endFill=0;fillColor=#f5f5f5;strokeColor=#666666;" edge="1" parent="1" source="AWFsbSFZq8-mkHC_pEQh-9">
          <mxGeometry width="50" height="50" relative="1" as="geometry">
            <mxPoint x="330" y="120" as="sourcePoint" />
            <mxPoint x="260" y="50" as="targetPoint" />
            <Array as="points">
              <mxPoint x="260" y="33" />
            </Array>
          </mxGeometry>
        </mxCell>
        <mxCell id="AWFsbSFZq8-mkHC_pEQh-11" style="edgeStyle=orthogonalEdgeStyle;rounded=0;orthogonalLoop=1;jettySize=auto;html=1;exitX=1;exitY=0.5;exitDx=0;exitDy=0;entryX=0;entryY=0.5;entryDx=0;entryDy=0;" edge="1" parent="1" source="AWFsbSFZq8-mkHC_pEQh-12" target="AWFsbSFZq8-mkHC_pEQh-13">
          <mxGeometry relative="1" as="geometry" />
        </mxCell>
        <mxCell id="AWFsbSFZq8-mkHC_pEQh-12" value="VOID" style="rounded=0;whiteSpace=wrap;html=1;dashed=1;dashPattern=1 4;" vertex="1" parent="1">
          <mxGeometry x="360" y="40" width="40" height="40" as="geometry" />
        </mxCell>
        <mxCell id="AWFsbSFZq8-mkHC_pEQh-13" value="A" style="rounded=0;whiteSpace=wrap;html=1;" vertex="1" parent="1">
          <mxGeometry x="440" y="40" width="40" height="40" as="geometry" />
        </mxCell>
        <mxCell id="AWFsbSFZq8-mkHC_pEQh-14" value="*" style="text;html=1;strokeColor=none;fillColor=none;align=center;verticalAlign=middle;whiteSpace=wrap;rounded=0;fontStyle=1;fontSize=18;" vertex="1" parent="1">
          <mxGeometry x="450" y="30" width="20" height="10" as="geometry" />
        </mxCell>
        <mxCell id="AWFsbSFZq8-mkHC_pEQh-15" value="" style="endArrow=baseDash;html=1;rounded=0;exitX=0;exitY=0.25;exitDx=0;exitDy=0;dashed=1;endFill=0;fillColor=#f5f5f5;strokeColor=#666666;" edge="1" parent="1" source="AWFsbSFZq8-mkHC_pEQh-14">
          <mxGeometry width="50" height="50" relative="1" as="geometry">
            <mxPoint x="490" y="120" as="sourcePoint" />
            <mxPoint x="420" y="50" as="targetPoint" />
            <Array as="points">
              <mxPoint x="420" y="33" />
            </Array>
          </mxGeometry>
        </mxCell>
        <mxCell id="AWFsbSFZq8-mkHC_pEQh-16" value="Foward" style="text;html=1;strokeColor=none;fillColor=none;align=center;verticalAlign=middle;whiteSpace=wrap;rounded=0;" vertex="1" parent="1">
          <mxGeometry x="40" width="120" height="30" as="geometry" />
        </mxCell>
        <mxCell id="AWFsbSFZq8-mkHC_pEQh-17" value="Backward" style="text;html=1;strokeColor=none;fillColor=none;align=center;verticalAlign=middle;whiteSpace=wrap;rounded=0;" vertex="1" parent="1">
          <mxGeometry x="200" width="120" height="30" as="geometry" />
        </mxCell>
        <mxCell id="AWFsbSFZq8-mkHC_pEQh-18" value="Inward" style="text;html=1;strokeColor=none;fillColor=none;align=center;verticalAlign=middle;whiteSpace=wrap;rounded=0;" vertex="1" parent="1">
          <mxGeometry x="360" width="120" height="30" as="geometry" />
        </mxCell>
      </root>
    </mxGraphModel>
  </diagram>
</mxfile>
